HIERARCHY
ROOT newVegas:Hips
{
	OFFSET 0.000000 96.479958 0.000000
	CHANNELS 6 Xposition Yposition Zposition Xrotation Yrotation Zrotation
	JOINT newVegas:Pelvis
	{
		OFFSET 0.000000 0.000000 0.000000
		CHANNELS 3 Xrotation Yrotation Zrotation
		JOINT newVegas:LeftUpLeg
		{
			OFFSET 18.735201 -5.666702 -4.541200
			CHANNELS 3 Xrotation Yrotation Zrotation
			JOINT newVegas:LeftLeg
			{
				OFFSET -0.021200 -31.938179 0.493100
				CHANNELS 3 Xrotation Yrotation Zrotation
				JOINT newVegas:LeftFoot
				{
					OFFSET 0.021200 -31.938179 -4.336299
					CHANNELS 3 Xrotation Yrotation Zrotation
					JOINT newVegas:LeftToeBase
					{
						OFFSET 0.943001 -26.722000 15.023500
						CHANNELS 3 Xrotation Yrotation Zrotation
						End Site
						{
							OFFSET 0.000000 30.670183 0.000000
						}
					}
				}
				JOINT newVegas:Left_PantLeg
				{
					OFFSET 0.663870 -9.044666 -1.108900
					CHANNELS 3 Xrotation Yrotation Zrotation
					End Site
					{
						OFFSET 1.415995 20.635357 0.000000
					}
				}
			}
		}
		JOINT newVegas:RightUpLeg
		{
			OFFSET -18.735201 -5.666702 -4.541200
			CHANNELS 3 Xrotation Yrotation Zrotation
			JOINT newVegas:RightLeg
			{
				OFFSET 0.018946 -31.938133 0.493100
				CHANNELS 3 Xrotation Yrotation Zrotation
				JOINT newVegas:RightFoot
				{
					OFFSET -0.018946 -31.938126 -4.336299
					CHANNELS 3 Xrotation Yrotation Zrotation
					JOINT newVegas:RightToeBase
					{
						OFFSET -0.943001 -26.722004 15.023500
						CHANNELS 3 Xrotation Yrotation Zrotation
						End Site
						{
							OFFSET 0.000000 30.670187 0.000000
						}
					}
				}
				JOINT newVegas:Right_PantLeg
				{
					OFFSET -0.661674 -9.044716 -1.108900
					CHANNELS 3 Xrotation Yrotation Zrotation
					End Site
					{
						OFFSET -1.415958 20.635269 0.000000
					}
				}
			}
		}
	}
	JOINT newVegas:Spine
	{
		OFFSET 0.000000 10.199997 -0.299500
		CHANNELS 3 Xrotation Yrotation Zrotation
		JOINT newVegas:Spine1
		{
			OFFSET 0.000000 11.900002 -1.516600
			CHANNELS 3 Xrotation Yrotation Zrotation
			JOINT newVegas:Spine2
			{
				OFFSET 0.000000 13.600006 -2.842500
				CHANNELS 3 Xrotation Yrotation Zrotation
				JOINT newVegas:Neck
				{
					OFFSET 0.000000 9.624100 -2.890100
					CHANNELS 3 Xrotation Yrotation Zrotation
					JOINT newVegas:Head
					{
						OFFSET 0.000000 14.068802 -1.351900
						CHANNELS 3 Xrotation Yrotation Zrotation
						JOINT newVegas:Hair_Back
						{
							OFFSET 0.000000 3.231903 -17.524799
							CHANNELS 3 Xrotation Yrotation Zrotation
							End Site
							{
								OFFSET 0.000000 19.849884 0.000000
							}
						}
						JOINT newVegas:Hair_Front
						{
							OFFSET 0.000000 31.260406 4.573800
							CHANNELS 3 Xrotation Yrotation Zrotation
							JOINT newVegas:Hair_Front1
							{
								OFFSET 0.000000 2.284103 11.993300
								CHANNELS 3 Xrotation Yrotation Zrotation
								JOINT newVegas:Hair_Front2
								{
									OFFSET 0.000000 2.284103 11.993300
									CHANNELS 3 Xrotation Yrotation Zrotation
									End Site
									{
										OFFSET 0.000000 12.208862 0.000000
									}
								}
							}
						}
						JOINT newVegas:Jowel
						{
							OFFSET 0.000000 -7.458206 6.864100
							CHANNELS 3 Xrotation Yrotation Zrotation
							End Site
							{
								OFFSET 0.000000 19.849884 0.000000
							}
						}
					}
				}
				JOINT newVegas:LeftShoulder
				{
					OFFSET 15.263000 10.923401 -0.547700
					CHANNELS 3 Xrotation Yrotation Zrotation
					JOINT newVegas:LeftArm
					{
						OFFSET 25.438599 -2.830597 -13.032500
						CHANNELS 3 Xrotation Yrotation Zrotation
						JOINT newVegas:LeftForeArm
						{
							OFFSET 29.960503 0.000000 0.000000
							CHANNELS 3 Xrotation Yrotation Zrotation
							JOINT newVegas:LeftHand
							{
								OFFSET 27.849251 0.000000 0.000000
								CHANNELS 3 Xrotation Yrotation Zrotation
								JOINT newVegas:LeftHandThumb1
								{
									OFFSET 4.487587 -3.305161 6.305391
									CHANNELS 3 Xrotation Yrotation Zrotation
									JOINT newVegas:LeftHandThumb2
									{
										OFFSET 5.480453 -3.164139 3.164143
										CHANNELS 3 Xrotation Yrotation Zrotation
										JOINT newVegas:LeftHandThumb3
										{
											OFFSET 5.159721 -2.978973 2.978967
											CHANNELS 3 Xrotation Yrotation Zrotation
											End Site
											{
												OFFSET 2.494507 5.926697 1.738678
											}
										}
									}
								}
								JOINT newVegas:LeftHandIndex1
								{
									OFFSET 18.578728 -0.527832 5.208049
									CHANNELS 3 Xrotation Yrotation Zrotation
									JOINT newVegas:LeftHandIndex2
									{
										OFFSET 3.192009 0.000000 0.000000
										CHANNELS 3 Xrotation Yrotation Zrotation
										JOINT newVegas:LeftHandIndex3
										{
											OFFSET 3.835129 0.000000 0.000000
											CHANNELS 3 Xrotation Yrotation Zrotation
											End Site
											{
												OFFSET -0.034599 3.816971 0.371180
											}
										}
									}
								}
								JOINT newVegas:LeftHandMiddle1
								{
									OFFSET 18.476105 0.000000 0.000000
									CHANNELS 3 Xrotation Yrotation Zrotation
									JOINT newVegas:LeftHandMiddle2
									{
										OFFSET 3.324875 0.000000 0.000000
										CHANNELS 3 Xrotation Yrotation Zrotation
										JOINT newVegas:LeftHandMiddle3
										{
											OFFSET 4.596550 0.000000 0.000000
											CHANNELS 3 Xrotation Yrotation Zrotation
											End Site
											{
												OFFSET 0.057701 4.578827 0.399218
											}
										}
									}
								}
								JOINT newVegas:LeftHandRing1
								{
									OFFSET 17.732719 0.121887 -4.201567
									CHANNELS 3 Xrotation Yrotation Zrotation
									JOINT newVegas:LeftHandRing2
									{
										OFFSET 2.733170 0.000000 0.000000
										CHANNELS 3 Xrotation Yrotation Zrotation
										JOINT newVegas:LeftHandRing3
										{
											OFFSET 3.178268 0.000000 0.000000
											CHANNELS 3 Xrotation Yrotation Zrotation
											End Site
											{
												OFFSET 0.119102 3.170624 0.185394
											}
										}
									}
								}
								JOINT newVegas:LeftHandPinky1
								{
									OFFSET 15.989624 -0.606689 -7.535461
									CHANNELS 3 Xrotation Yrotation Zrotation
									JOINT newVegas:LeftHandPinky2
									{
										OFFSET 2.538986 0.000000 0.000000
										CHANNELS 3 Xrotation Yrotation Zrotation
										JOINT newVegas:LeftHandPinky3
										{
											OFFSET 2.593102 0.000000 0.000000
											CHANNELS 3 Xrotation Yrotation Zrotation
											End Site
											{
												OFFSET -0.150902 2.584198 0.152708
											}
										}
									}
								}
							}
							JOINT newVegas:Left_Sleeve
							{
								OFFSET 0.267448 -0.649796 0.577675
								CHANNELS 3 Xrotation Yrotation Zrotation
								End Site
								{
									OFFSET 0.000000 15.991241 0.000000
								}
							}
							JOINT newVegas:Left_CapeC
							{
								OFFSET 15.715958 -8.608795 -6.935905
								CHANNELS 3 Xrotation Yrotation Zrotation
								JOINT newVegas:Left_CapeC1
								{
									OFFSET 0.000000 -8.688499 0.000000
									CHANNELS 3 Xrotation Yrotation Zrotation
									End Site
									{
										OFFSET 0.000000 8.688499 0.000000
									}
								}
							}
						}
						JOINT newVegas:Left_CapeB
						{
							OFFSET 26.118385 -8.608795 -7.079235
							CHANNELS 3 Xrotation Yrotation Zrotation
							JOINT newVegas:Left_CapeB1
							{
								OFFSET 0.000000 -8.688499 0.000000
								CHANNELS 3 Xrotation Yrotation Zrotation
								End Site
								{
									OFFSET 0.000000 8.688499 0.000000
								}
							}
						}
						JOINT newVegas:Left_CapeA
						{
							OFFSET 5.115639 -8.608795 -10.395809
							CHANNELS 3 Xrotation Yrotation Zrotation
							JOINT newVegas:Left_CapeA1
							{
								OFFSET 0.000000 -8.688499 0.000000
								CHANNELS 3 Xrotation Yrotation Zrotation
								End Site
								{
									OFFSET 0.000000 8.688499 0.000000
								}
							}
						}
					}
				}
				JOINT newVegas:RightShoulder
				{
					OFFSET -15.263000 10.923401 -0.547700
					CHANNELS 3 Xrotation Yrotation Zrotation
					JOINT newVegas:RightArm
					{
						OFFSET -25.438599 -2.830597 -13.032500
						CHANNELS 3 Xrotation Yrotation Zrotation
						JOINT newVegas:RightForeArm
						{
							OFFSET -29.960503 0.000000 0.000000
							CHANNELS 3 Xrotation Yrotation Zrotation
							JOINT newVegas:RightHand
							{
								OFFSET -27.849251 0.000000 0.000000
								CHANNELS 3 Xrotation Yrotation Zrotation
								JOINT newVegas:RightHandThumb1
								{
									OFFSET -4.487587 -3.305161 6.305391
									CHANNELS 3 Xrotation Yrotation Zrotation
									JOINT newVegas:RightHandThumb2
									{
										OFFSET -5.480453 -3.164139 3.164143
										CHANNELS 3 Xrotation Yrotation Zrotation
										JOINT newVegas:RightHandThumb3
										{
											OFFSET -5.159721 -2.978973 2.978967
											CHANNELS 3 Xrotation Yrotation Zrotation
											End Site
											{
												OFFSET -2.494507 5.926697 1.738678
											}
										}
									}
								}
								JOINT newVegas:RightHandIndex1
								{
									OFFSET -18.578728 -0.527832 5.208049
									CHANNELS 3 Xrotation Yrotation Zrotation
									JOINT newVegas:RightHandIndex2
									{
										OFFSET -3.192009 0.000000 0.000000
										CHANNELS 3 Xrotation Yrotation Zrotation
										JOINT newVegas:RightHandIndex3
										{
											OFFSET -3.835129 0.000000 0.000000
											CHANNELS 3 Xrotation Yrotation Zrotation
											End Site
											{
												OFFSET 0.034599 3.816971 0.371180
											}
										}
									}
								}
								JOINT newVegas:RightHandMiddle1
								{
									OFFSET -18.476105 0.000000 0.000000
									CHANNELS 3 Xrotation Yrotation Zrotation
									JOINT newVegas:RightHandMiddle2
									{
										OFFSET -3.324875 0.000000 0.000000
										CHANNELS 3 Xrotation Yrotation Zrotation
										JOINT newVegas:RightHandMiddle3
										{
											OFFSET -4.596550 0.000000 0.000000
											CHANNELS 3 Xrotation Yrotation Zrotation
											End Site
											{
												OFFSET -0.057701 4.578827 0.399218
											}
										}
									}
								}
								JOINT newVegas:RightHandRing1
								{
									OFFSET -17.732719 0.121887 -4.201567
									CHANNELS 3 Xrotation Yrotation Zrotation
									JOINT newVegas:RightHandRing2
									{
										OFFSET -2.733170 0.000000 0.000000
										CHANNELS 3 Xrotation Yrotation Zrotation
										JOINT newVegas:RightHandRing3
										{
											OFFSET -3.178268 0.000000 0.000000
											CHANNELS 3 Xrotation Yrotation Zrotation
											End Site
											{
												OFFSET -0.119102 3.170624 0.185394
											}
										}
									}
								}
								JOINT newVegas:RightHandPinky1
								{
									OFFSET -15.989624 -0.606689 -7.535461
									CHANNELS 3 Xrotation Yrotation Zrotation
									JOINT newVegas:RightHandPinky2
									{
										OFFSET -2.538986 0.000000 0.000000
										CHANNELS 3 Xrotation Yrotation Zrotation
										JOINT newVegas:RightHandPinky3
										{
											OFFSET -2.593102 0.000000 0.000000
											CHANNELS 3 Xrotation Yrotation Zrotation
											End Site
											{
												OFFSET 0.150902 2.584198 0.152708
											}
										}
									}
								}
							}
							JOINT newVegas:Right_CapeC
							{
								OFFSET -15.715958 -8.608795 -6.935905
								CHANNELS 3 Xrotation Yrotation Zrotation
								JOINT newVegas:Right_CapeC1
								{
									OFFSET 0.000000 -8.688499 0.000000
									CHANNELS 3 Xrotation Yrotation Zrotation
									End Site
									{
										OFFSET 0.000000 8.688499 0.000000
									}
								}
							}
							JOINT newVegas:Right_Sleeve
							{
								OFFSET -0.267448 -0.649994 0.577675
								CHANNELS 3 Xrotation Yrotation Zrotation
								End Site
								{
									OFFSET 0.000000 15.991302 0.000000
								}
							}
						}
						JOINT newVegas:Right_CapeA
						{
							OFFSET -5.115540 -8.608795 -10.395824
							CHANNELS 3 Xrotation Yrotation Zrotation
							JOINT newVegas:Right_CapeA1
							{
								OFFSET 0.000000 -8.688499 0.000000
								CHANNELS 3 Xrotation Yrotation Zrotation
								End Site
								{
									OFFSET 0.000000 8.688499 0.000000
								}
							}
						}
						JOINT newVegas:Right_CapeB
						{
							OFFSET -26.118187 -8.608795 -7.079266
							CHANNELS 3 Xrotation Yrotation Zrotation
							JOINT newVegas:Right_CapeB1
							{
								OFFSET 0.000000 -8.688499 0.000000
								CHANNELS 3 Xrotation Yrotation Zrotation
								End Site
								{
									OFFSET 0.000000 8.688499 0.000000
								}
							}
						}
					}
				}
				JOINT newVegas:Left_Collar
				{
					OFFSET 18.625099 8.655502 8.828100
					CHANNELS 3 Xrotation Yrotation Zrotation
					JOINT newVegas:Left_Collar1
					{
						OFFSET 14.783401 10.540405 -1.259500
						CHANNELS 3 Xrotation Yrotation Zrotation
						End Site
						{
							OFFSET 0.000000 18.199875 0.000000
						}
					}
				}
				JOINT newVegas:Collar_Back
				{
					OFFSET 0.000000 15.630707 -20.132601
					CHANNELS 3 Xrotation Yrotation Zrotation
					End Site
					{
						OFFSET 0.000000 22.523010 0.000000
					}
				}
				JOINT newVegas:Left_Peck
				{
					OFFSET 17.239599 -5.132599 25.482599
					CHANNELS 3 Xrotation Yrotation Zrotation
					End Site
					{
						OFFSET 0.000000 22.523010 0.000000
					}
				}
				JOINT newVegas:Right_Peck
				{
					OFFSET -17.239599 -5.132202 25.482599
					CHANNELS 3 Xrotation Yrotation Zrotation
					End Site
					{
						OFFSET 0.000000 22.523010 0.000000
					}
				}
				JOINT newVegas:Right_Collar
				{
					OFFSET -18.625099 8.655792 8.828100
					CHANNELS 3 Xrotation Yrotation Zrotation
					JOINT newVegas:Right_Collar1
					{
						OFFSET -14.783401 10.539993 -1.259500
						CHANNELS 3 Xrotation Yrotation Zrotation
						End Site
						{
							OFFSET 0.000000 18.199631 0.000000
						}
					}
				}
			}
		}
		JOINT newVegas:Belly
		{
			OFFSET 0.000000 -6.540398 9.014299
			CHANNELS 3 Xrotation Yrotation Zrotation
			End Site
			{
				OFFSET 0.000000 11.566666 0.000000
			}
		}
	}
	JOINT newVegas:ElvisFacialAnim_Joint
	{
		OFFSET 1.000000 -95.330101 -8.825800
		CHANNELS 3 Xrotation Yrotation Zrotation
		End Site
		{
			OFFSET 0.000000 35.315800 0.000000
		}
	}
}
MOTION
Frames: 4
Frame Time: 0.033333
-7.540512 41.795753 76.545212 -42.851780 40.515139 26.595426 -0.000001 0.000002 -0.000001 -50.771279 51.963697 22.790535 113.774423 6.903826 8.019265 46.901188 -3.643199 -0.537661 0.000001 -0.000001 0.000001 -0.000000 0.000002 0.000002 0.921962 -83.835839 73.126116 120.033403 -35.985671 -15.983408 -22.221706 -21.033554 -46.912314 -0.000002 0.000003 -0.000002 0.000001 -0.000002 -0.000001 51.217516 -10.680417 16.190752 6.028134 -5.115970 1.478315 5.951740 -5.240498 1.869164 -0.111362 -0.736150 -0.205206 -0.111354 -0.736160 -0.205201 -0.000002 0.000001 -0.000000 -0.111311 -0.736182 -0.205198 -0.111403 -0.736111 -0.205212 0.000002 0.000000 -0.000001 -0.000002 0.000001 -0.000000 3.594160 -2.014073 8.142129 -25.565991 21.730482 1.990475 -0.000002 -35.564812 -0.000001 35.606989 18.081539 14.269954 -3.330756 -9.047964 7.469702 9.442340 39.038015 6.131094 0.000003 -0.000006 -0.000002 0.480672 -1.228388 -14.416943 1.298456 3.679288 -38.865795 -0.000002 -0.000001 -0.000000 -0.822490 2.500274 -30.997458 1.575370 3.997883 -43.000672 -0.000003 -0.000001 0.000003 1.641537 6.555983 -31.967034 3.585324 5.395969 -67.181788 0.000002 0.000001 0.000000 2.381972 16.353464 -34.088678 3.883383 5.511353 -70.317344 -0.000003 -0.000002 -0.000001 0.000000 0.000000 0.000000 0.000000 0.000000 0.000000 0.000000 0.000000 0.000000 0.000000 -0.000002 -0.000002 0.000000 -0.000003 -0.000002 0.000000 -0.000002 -0.000002 0.000000 -0.000003 -0.000002 -2.627441 -0.344727 -23.248140 -70.198355 -4.377068 1.524080 -0.000024 66.504971 0.000030 10.369161 -15.076019 -26.910238 -4.220062 13.244304 -5.889810 9.470442 -39.650966 -6.644902 -0.000000 -0.000005 -0.000005 -0.223544 1.318129 8.651320 0.512738 -2.126185 27.112946 0.000000 0.000001 0.000001 -1.053459 -1.145842 26.420579 0.686321 -2.435367 31.473105 0.000001 -0.000000 -0.000001 0.988073 -5.227034 27.392651 2.104463 -3.896519 56.732562 0.000001 0.000001 -0.000002 2.657897 -14.489396 29.657385 2.345187 -4.043864 60.208753 0.000003 0.000003 0.000001 -0.000000 -0.000000 0.000002 -0.000002 -0.000001 0.000000 -0.000001 -0.000000 0.000000 0.000001 0.000001 -0.000002 0.000001 0.000002 -0.000002 0.000001 0.000001 -0.000002 0.000001 0.000002 -0.000002 -0.000000 -0.000000 -0.000000 -0.000000 -0.000000 -0.000000 -0.000000 -0.000000 -0.000000 -0.000000 -0.000000 -0.000000 -0.000000 -0.000000 -0.000000 -0.000000 -0.000000 -0.000000 -0.000000 -0.000000 -0.000000 -0.000001 -0.000001 0.000000 -0.000001 0.000002 -0.000001 
-6.607006 39.041382 76.478882 -42.018067 40.081678 25.981642 -0.000000 -0.000002 0.000001 -55.147268 56.649917 27.110107 114.531310 7.699610 10.301346 48.889719 -0.851707 -1.662554 -0.000000 -0.000002 0.000001 -0.000000 -0.000002 -0.000000 75.935236 -82.694828 149.505669 119.689448 -41.604598 -19.135589 -25.029997 -19.640952 -50.630174 -0.000003 -0.000000 -0.000002 0.000001 0.000000 0.000000 52.114514 -9.599787 15.270373 6.068644 -4.763597 1.373343 5.999442 -4.897356 1.745066 -0.278921 -0.741474 -0.303803 -0.278932 -0.741475 -0.303807 0.000002 0.000001 -0.000000 -0.278821 -0.741464 -0.303805 -0.278916 -0.741485 -0.303801 0.000001 -0.000003 0.000001 0.000002 0.000001 -0.000001 3.335551 -0.443224 10.832308 -29.711029 23.047524 1.060895 -0.000006 -38.997949 -0.000008 36.094889 15.070087 12.335121 -3.332138 -9.495876 7.249625 9.453402 38.845690 6.100212 -0.000000 -0.000004 -0.000008 0.393692 -1.038798 -14.215223 1.178112 3.525070 -36.950832 -0.000004 -0.000001 -0.000002 -0.851880 2.439630 -30.900763 1.328199 3.715830 -39.327259 0.000001 -0.000004 0.000001 1.618326 6.492386 -32.655111 2.978079 5.099284 -60.549702 0.000001 0.000001 0.000002 2.159403 16.173680 -34.317859 3.273363 5.254424 -63.821602 -0.000001 -0.000003 -0.000000 -0.000001 0.000000 -0.000000 -0.000001 0.000000 -0.000000 -0.000001 0.000000 -0.000000 -0.000000 -0.000001 -0.000002 -0.000000 -0.000002 -0.000001 -0.000000 -0.000001 -0.000002 -0.000000 -0.000003 -0.000002 -2.589561 0.192955 -23.767125 -71.022001 -3.520550 4.273852 -0.000015 73.083987 -0.000003 10.730363 -12.343510 -35.536207 -4.380445 14.154884 -5.519233 9.442957 -38.843098 -6.598658 0.000000 0.000001 0.000001 -0.385242 1.398987 6.484624 0.343585 -1.757295 22.124308 -0.000001 0.000000 0.000000 -1.029257 -0.906919 24.451854 0.490857 -2.082947 26.517188 0.000000 -0.000001 0.000002 0.860044 -5.038031 25.403272 1.789336 -3.670952 51.959933 -0.000001 0.000001 -0.000000 2.749923 -14.242366 27.661184 2.020959 -3.840567 55.494874 -0.000002 -0.000000 -0.000000 0.000001 -0.000001 -0.000000 0.000003 0.000000 -0.000000 0.000001 -0.000001 0.000002 -0.000001 -0.000002 -0.000000 -0.000001 -0.000001 -0.000001 -0.000001 -0.000002 -0.000000 -0.000001 -0.000001 -0.000001 0.000003 0.000001 0.000000 0.000003 0.000001 0.000000 0.000003 0.000001 0.000000 0.000003 0.000001 0.000000 0.000003 0.000001 0.000000 0.000003 0.000001 0.000000 0.000003 0.000001 0.000000 0.000001 0.000000 -0.000001 -0.000000 -0.000002 0.000001 
-6.328857 38.314430 75.856842 -40.467488 38.108757 23.503116 -0.000001 -0.000001 0.000001 -58.097862 56.877833 29.989793 114.885927 6.931486 10.648676 48.813965 -2.950057 -3.345170 -0.000000 0.000000 -0.000000 -0.000001 0.000001 0.000000 89.145874 -81.602825 163.702340 119.786355 -42.503256 -19.720976 -22.998082 -18.426090 -52.501659 -0.000003 0.000001 -0.000002 -0.000000 -0.000003 -0.000003 53.663946 -7.789671 14.119575 6.567449 -4.109306 1.185872 6.518881 -4.204414 1.525339 -0.300796 -0.772990 -0.451913 -0.300794 -0.772989 -0.451916 0.000001 0.000001 -0.000000 -0.300771 -0.772991 -0.451913 -0.300827 -0.772996 -0.451915 0.000001 -0.000001 -0.000000 0.000001 0.000001 0.000001 2.808508 -0.261954 9.263364 -32.421303 22.666037 0.667134 -0.000000 -41.279911 -0.000002 32.184637 6.929353 11.178936 -3.305471 -10.351151 6.816914 9.487410 38.568019 6.042821 -0.000000 -0.000005 -0.000005 0.198459 -0.619873 -13.790095 0.953731 3.205612 -33.129402 -0.000002 -0.000000 -0.000001 -0.915392 2.324130 -30.832109 0.939948 3.184452 -32.882477 -0.000003 -0.000002 0.000002 1.533924 6.328443 -33.791487 2.075677 4.473295 -49.766520 -0.000001 0.000001 0.000000 1.914825 15.765410 -34.753184 2.358837 4.697510 -53.307468 0.000001 -0.000007 -0.000002 0.000001 0.000000 0.000001 0.000001 0.000000 0.000001 0.000001 0.000000 0.000001 0.000000 0.000000 0.000000 0.000000 -0.000001 0.000000 0.000000 0.000000 0.000000 -0.000000 -0.000001 0.000001 -0.842083 6.597270 -24.442926 -68.958252 -3.589807 3.499523 -0.000041 78.213507 0.000056 11.438474 -10.943824 -38.650155 -4.628201 15.025822 -5.205974 9.382445 -37.837933 -6.513139 0.000000 0.000000 -0.000002 -0.250723 1.650481 4.335268 0.210072 -1.384357 17.256838 0.000000 0.000001 0.000001 -0.971845 -0.687261 22.250560 0.328901 -1.720718 21.640006 0.000001 0.000002 -0.000002 0.764904 -4.907699 23.184812 1.484310 -3.410863 47.024121 -0.000000 0.000002 -0.000000 2.660729 -14.157366 25.433087 1.699427 -3.598949 50.542061 -0.000001 0.000002 0.000000 0.000002 0.000000 0.000003 -0.000000 0.000000 0.000001 0.000002 0.000000 0.000003 -0.000001 0.000002 0.000001 -0.000001 0.000003 -0.000000 -0.000001 0.000002 0.000001 -0.000001 0.000003 -0.000000 0.000000 0.000000 0.000001 0.000000 0.000000 0.000001 0.000000 0.000000 0.000001 0.000000 0.000000 0.000001 0.000000 0.000000 0.000001 0.000000 0.000000 0.000001 0.000000 0.000000 0.000001 0.000001 -0.000001 0.000000 -0.000001 -0.000001 0.000001 
-6.877783 39.668663 74.920074 -38.354084 35.083721 19.757555 -0.000001 -0.000001 -0.000000 -57.110787 52.953931 30.338191 115.357756 -1.468529 8.481001 45.674612 -6.616164 -9.973113 0.000001 0.000001 -0.000001 -0.000002 0.000000 -0.000001 61.803329 -85.607829 137.587822 120.465563 -37.548238 -17.332691 -15.375867 -18.164077 -52.412338 -0.000003 0.000003 -0.000000 0.000003 0.000002 -0.000001 55.425698 -6.185304 12.479076 7.492686 -3.296426 0.854198 7.472394 -3.299220 1.138620 -0.106332 -0.815363 -0.674297 -0.106350 -0.815350 -0.674307 -0.000001 0.000002 -0.000002 -0.106221 -0.815367 -0.674295 -0.106385 -0.815359 -0.674304 -0.000003 -0.000002 0.000001 -0.000001 0.000002 -0.000001 2.454713 -2.338382 3.286920 -26.806630 22.220327 -2.610491 0.000000 -44.974600 -0.000003 18.446398 0.757224 12.367490 -3.340594 -11.437053 6.304113 9.503769 38.040862 5.963114 -0.000000 0.000001 -0.000001 -0.023025 -0.251305 -12.896012 0.694161 2.768006 -28.151123 -0.000004 -0.000001 0.000003 -0.978138 2.145822 -30.262208 0.545415 2.470316 -24.897317 -0.000002 -0.000003 0.000002 1.418955 6.143146 -34.583427 1.167930 3.511483 -36.784499 -0.000001 -0.000002 -0.000002 1.565159 15.312015 -34.747430 1.411890 3.815453 -40.601288 -0.000002 -0.000002 -0.000001 0.000000 0.000000 -0.000000 0.000000 0.000000 -0.000000 0.000000 0.000000 -0.000000 0.000000 0.000003 -0.000001 0.000000 0.000002 -0.000001 0.000000 0.000003 -0.000001 0.000000 0.000002 -0.000001 1.896161 14.795445 -26.308973 -63.822073 -3.016503 5.617621 0.000030 80.904233 -0.000031 17.151495 -10.845897 -34.781034 -4.978724 15.763520 -4.999474 9.280259 -36.633095 -6.376306 0.000000 -0.000003 -0.000003 -0.121416 2.067355 2.371203 0.119833 -1.050785 13.011803 0.000001 -0.000001 0.000001 -0.879249 -0.517210 19.900333 0.210912 -1.387065 17.291613 0.000001 0.000002 0.000001 0.712112 -4.879742 20.822815 1.212810 -3.136459 42.272505 -0.000000 0.000004 -0.000000 2.289637 -14.281736 23.055252 1.404369 -3.334740 45.665603 0.000000 0.000002 -0.000000 0.000001 0.000000 -0.000001 0.000001 -0.000000 -0.000002 0.000001 0.000000 -0.000000 -0.000002 0.000000 -0.000001 -0.000002 0.000001 -0.000001 -0.000002 0.000000 -0.000001 -0.000002 0.000001 -0.000001 0.000002 -0.000001 0.000001 0.000002 -0.000001 0.000001 0.000002 -0.000001 0.000001 0.000002 -0.000001 0.000001 0.000002 -0.000001 0.000001 0.000002 -0.000001 0.000001 0.000002 -0.000001 0.000001 0.000001 -0.000001 -0.000000 -0.000001 -0.000001 -0.000000 
